<?xml version="1.0" encoding="UTF-8" ?>
<!DOCTYPE svg PUBLIC "-//W3C//DTD SVG 1.1//EN" "http://www.w3.org/Graphics/SVG/1.1/DTD/svg11.dtd">
<svg width="512pt" height="512pt" viewBox="0 0 512 512" version="1.1" xmlns="http://www.w3.org/2000/svg">
<path fill="#ffffff" d=" M 0.00 0.00 L 512.00 0.00 L 512.00 512.00 L 490.86 512.00 C 493.55 398.76 491.18 285.31 492.04 172.00 C 490.95 146.95 487.39 119.84 469.04 100.96 C 443.89 75.44 419.29 49.40 393.77 24.23 C 383.83 13.20 370.75 4.56 355.92 2.10 C 274.52 2.96 192.88 0.96 111.40 2.40 C 103.93 2.38 93.69 3.57 91.07 12.07 C 87.47 18.73 92.34 28.95 87.05 34.08 C 66.52 36.65 45.31 33.61 24.60 35.54 C 18.96 37.15 12.03 38.50 9.34 44.35 C 5.20 52.47 5.60 62.12 5.00 70.98 C 5.18 99.55 4.59 128.13 5.31 156.69 C 5.69 165.85 8.16 177.60 18.04 180.97 C 40.86 186.28 64.58 182.96 87.77 184.16 C 88.04 184.45 88.58 185.03 88.85 185.32 C 89.20 280.21 88.90 375.11 89.00 470.00 C 89.31 483.99 87.29 498.56 92.29 512.00 L 0.00 512.00 L 0.00 0.00 Z" />
<path fill="#f9fafa" d=" M 111.40 2.40 C 192.88 0.96 274.52 2.96 355.92 2.10 C 370.75 4.56 383.83 13.20 393.77 24.23 C 419.29 49.40 443.89 75.44 469.04 100.96 C 487.39 119.84 490.95 146.95 492.04 172.00 C 491.18 285.31 493.55 398.76 490.86 512.00 L 486.05 512.00 C 489.24 504.11 488.91 495.33 489.04 487.00 C 488.88 382.00 489.15 276.99 488.91 171.99 C 488.77 159.82 484.70 148.28 479.60 137.38 C 475.30 126.96 471.53 116.18 465.13 106.80 C 444.16 81.29 418.64 59.96 396.74 35.30 C 388.39 27.73 379.80 19.93 369.12 15.84 C 344.02 7.21 317.63 2.85 291.00 5.00 C 229.32 4.99 167.65 5.02 105.97 4.98 C 98.43 5.13 93.06 12.56 92.61 19.66 C 90.92 25.15 94.77 34.00 88.26 37.28 C 68.12 40.43 46.69 34.78 26.74 39.72 C 21.13 39.08 12.89 39.81 11.80 46.80 C 11.34 49.41 11.07 52.07 10.71 54.71 C 8.06 61.04 8.62 68.28 8.01 74.98 C 8.24 101.79 7.44 128.63 8.45 155.43 C 8.24 165.38 13.17 176.96 23.98 179.00 C 45.32 182.90 67.15 180.03 88.69 181.17 C 91.32 183.19 92.71 186.65 91.95 190.00 C 92.05 291.67 92.01 393.35 91.97 495.02 C 91.27 501.17 93.77 507.06 97.19 512.00 L 92.29 512.00 C 87.29 498.56 89.31 483.99 89.00 470.00 C 88.90 375.11 89.20 280.21 88.85 185.32 C 88.58 185.03 88.04 184.45 87.77 184.16 C 64.58 182.96 40.86 186.28 18.04 180.97 C 8.16 177.60 5.69 165.85 5.31 156.69 C 4.59 128.13 5.18 99.55 5.00 70.98 C 5.60 62.12 5.20 52.47 9.34 44.35 C 12.03 38.50 18.96 37.15 24.60 35.54 C 45.31 33.61 66.52 36.65 87.05 34.08 C 92.34 28.95 87.47 18.73 91.07 12.07 C 93.69 3.57 103.93 2.38 111.40 2.40 Z" />
<path fill="#f0f2f1" d=" M 92.61 19.66 C 93.06 12.56 98.43 5.13 105.97 4.98 C 167.65 5.02 229.32 4.99 291.00 5.00 C 317.63 2.85 344.02 7.21 369.12 15.84 C 379.80 19.93 388.39 27.73 396.74 35.30 C 418.64 59.96 444.16 81.29 465.13 106.80 C 471.53 116.18 475.30 126.96 479.60 137.38 C 484.70 148.28 488.77 159.82 488.91 171.99 C 489.15 276.99 488.88 382.00 489.04 487.00 C 488.91 495.33 489.24 504.11 486.05 512.00 L 482.98 512.00 C 487.55 504.22 486.21 494.62 487.00 486.01 C 486.96 384.34 487.08 282.66 486.94 180.99 C 485.89 170.96 487.18 160.44 483.04 150.98 C 472.40 130.14 463.54 107.26 445.77 91.23 C 430.49 76.16 416.32 60.04 400.75 45.25 C 385.86 28.23 364.74 16.78 342.82 12.01 C 334.26 8.99 325.01 8.38 316.02 8.00 C 244.07 8.06 172.12 7.88 100.18 8.09 C 99.98 9.62 99.88 11.16 99.76 12.69 C 94.16 20.63 98.01 31.39 93.91 40.00 C 71.52 39.89 49.12 40.29 26.74 39.72 C 46.69 34.78 68.12 40.43 88.26 37.28 C 94.77 34.00 90.92 25.15 92.61 19.66 Z" />
<path fill="#6e9c82" d=" M 100.18 8.09 C 172.12 7.88 244.07 8.06 316.02 8.00 C 325.01 8.38 334.26 8.99 342.82 12.01 C 344.24 12.96 345.66 13.91 347.09 14.84 C 346.54 15.04 345.45 15.46 344.91 15.67 C 337.77 12.26 329.96 10.38 322.10 9.73 C 248.48 8.08 174.73 9.38 101.07 9.07 C 100.95 13.38 101.01 17.69 100.98 22.00 L 100.02 22.00 C 99.94 18.90 99.90 15.79 99.76 12.69 C 99.88 11.16 99.98 9.62 100.18 8.09 Z" />
<path fill="#9bb6a5" d=" M 101.07 9.07 C 174.73 9.38 248.48 8.08 322.10 9.73 L 320.98 9.95 L 320.12 10.11 C 295.49 9.98 270.87 9.88 246.25 10.11 C 232.89 10.02 219.54 9.84 206.19 10.10 C 191.23 10.04 176.28 9.81 161.33 10.12 C 141.58 10.01 121.81 9.81 102.07 10.11 C 101.86 20.06 101.99 30.01 102.02 39.96 C 99.62 35.75 101.55 27.79 100.98 22.00 C 101.01 17.69 100.95 13.38 101.07 9.07 Z" />
<path fill="#d1d5d0" d=" M 102.07 10.11 C 121.81 9.81 141.58 10.01 161.33 10.12 C 155.43 19.55 140.88 22.82 136.90 32.90 C 151.38 36.98 166.61 36.64 181.26 39.74 C 154.85 40.23 128.43 39.98 102.02 39.96 C 101.99 30.01 101.86 20.06 102.07 10.11 Z" />
<path fill="#dbddd9" d=" M 161.33 10.12 C 176.28 9.81 191.23 10.04 206.19 10.10 C 197.92 17.86 187.91 23.84 180.96 32.94 C 201.44 38.75 223.32 36.70 244.28 39.71 C 223.28 40.16 202.26 40.20 181.26 39.74 C 166.61 36.64 151.38 36.98 136.90 32.90 C 140.88 22.82 155.43 19.55 161.33 10.12 Z" />
<path fill="#e4e3e2" d=" M 206.19 10.10 C 219.54 9.84 232.89 10.02 246.25 10.11 C 237.98 17.30 228.90 23.52 220.68 30.73 C 218.97 32.12 221.86 32.97 222.95 33.08 C 251.45 37.21 280.40 35.73 308.97 39.09 C 318.74 40.74 325.28 50.43 324.91 60.01 C 325.02 91.96 325.17 123.93 324.83 155.88 C 324.90 167.80 315.31 178.79 302.99 177.91 C 235.96 177.99 168.98 178.88 102.01 181.02 C 102.01 180.26 102.02 178.75 102.02 178.00 C 167.87 177.03 233.73 177.14 299.60 176.62 C 310.44 177.27 321.98 170.08 322.47 158.42 C 323.69 126.65 322.69 94.79 322.98 62.98 C 323.85 53.33 317.30 42.32 306.98 41.81 C 286.66 37.24 265.04 41.71 244.28 39.71 C 223.32 36.70 201.44 38.75 180.96 32.94 C 187.91 23.84 197.92 17.86 206.19 10.10 Z" />
<path fill="#ecebea" d=" M 246.25 10.11 C 270.87 9.88 295.49 9.98 320.12 10.11 C 312.73 18.23 301.12 23.15 295.01 31.79 C 303.22 33.89 312.59 34.22 319.68 39.39 C 330.06 49.29 327.55 65.15 327.80 77.96 C 325.79 104.82 327.90 131.82 326.73 158.70 C 326.60 170.72 316.21 181.04 304.01 180.08 C 236.75 182.78 169.06 178.19 102.02 186.08 C 102.00 184.39 101.99 182.70 102.01 181.02 C 168.98 178.88 235.96 177.99 302.99 177.91 C 315.31 178.79 324.90 167.80 324.83 155.88 C 325.17 123.93 325.02 91.96 324.91 60.01 C 325.28 50.43 318.74 40.74 308.97 39.09 C 280.40 35.73 251.45 37.21 222.95 33.08 C 221.86 32.97 218.97 32.12 220.68 30.73 C 228.90 23.52 237.98 17.30 246.25 10.11 Z" />
<path fill="#f3f3f2" d=" M 320.12 10.11 L 320.98 9.95 C 321.17 14.16 325.78 13.12 328.68 13.37 C 333.17 17.33 333.40 23.71 336.47 28.58 C 348.40 51.46 352.27 77.36 354.27 102.83 C 355.36 114.19 359.04 127.41 370.02 132.98 C 381.65 139.51 395.69 137.78 408.42 139.54 C 428.33 140.06 446.99 149.26 467.03 148.02 C 468.97 147.88 470.64 148.96 472.33 149.75 C 475.86 167.47 473.31 185.83 473.89 203.81 C 472.31 208.50 471.65 213.88 469.06 218.06 C 434.41 244.66 401.61 274.00 366.11 299.27 C 366.00 294.58 366.01 289.90 365.80 285.22 C 365.86 280.20 365.93 275.20 366.06 270.19 C 400.28 244.22 433.15 216.47 467.09 190.12 C 471.67 187.28 471.41 181.28 472.47 176.56 C 472.39 171.45 475.07 164.39 470.69 160.30 C 450.07 156.36 431.31 145.12 410.01 143.99 C 392.23 141.19 369.25 146.47 356.32 130.68 C 345.69 110.07 353.11 85.29 343.81 64.07 C 343.08 59.91 336.12 49.15 332.65 56.66 C 328.98 90.80 330.64 125.30 329.61 159.60 C 329.70 169.93 323.42 181.05 312.36 182.37 C 282.03 185.67 251.44 183.27 221.00 184.00 C 203.69 184.06 186.02 182.90 169.08 187.10 C 146.20 203.66 125.61 223.70 102.09 239.27 C 101.92 221.54 102.00 203.81 102.02 186.08 C 169.06 178.19 236.75 182.78 304.01 180.08 C 316.21 181.04 326.60 170.72 326.73 158.70 C 327.90 131.82 325.79 104.82 327.80 77.96 C 327.55 65.15 330.06 49.29 319.68 39.39 C 312.59 34.22 303.22 33.89 295.01 31.79 C 301.12 23.15 312.73 18.23 320.12 10.11 Z" />
<path fill="#eae9ea" d=" M 320.98 9.95 L 322.10 9.73 C 329.96 10.38 337.77 12.26 344.91 15.67 C 347.37 16.95 349.43 18.83 351.37 20.80 C 343.65 38.12 354.15 56.17 355.19 73.86 C 358.49 92.13 354.35 115.04 371.27 127.73 C 387.94 138.71 409.30 133.31 427.86 138.18 C 440.61 140.83 454.36 143.13 466.27 137.48 C 469.17 141.06 471.35 145.22 472.33 149.75 C 470.64 148.96 468.97 147.88 467.03 148.02 C 446.99 149.26 428.33 140.06 408.42 139.54 C 395.69 137.78 381.65 139.51 370.02 132.98 C 359.04 127.41 355.36 114.19 354.27 102.83 C 352.27 77.36 348.40 51.46 336.47 28.58 C 333.40 23.71 333.17 17.33 328.68 13.37 C 325.78 13.12 321.17 14.16 320.98 9.95 Z" />
<path fill="#e8e9e8" d=" M 342.82 12.01 C 364.74 16.78 385.86 28.23 400.75 45.25 C 416.32 60.04 430.49 76.16 445.77 91.23 C 463.54 107.26 472.40 130.14 483.04 150.98 C 487.18 160.44 485.89 170.96 486.94 180.99 C 487.08 282.66 486.96 384.34 487.00 486.01 C 486.21 494.62 487.55 504.22 482.98 512.00 L 479.84 512.00 C 485.36 506.53 484.65 498.15 485.01 491.02 C 484.99 392.68 485.00 294.34 485.00 196.00 C 484.90 182.13 485.87 168.03 482.48 154.44 C 479.62 144.93 473.38 137.06 468.42 128.63 C 454.51 98.40 427.50 77.53 405.25 53.75 C 391.09 37.74 373.32 24.62 352.88 17.98 C 350.93 16.96 348.99 15.92 347.09 14.84 C 345.66 13.91 344.24 12.96 342.82 12.01 Z" />
<path fill="#cddad3" d=" M 93.91 40.00 C 98.01 31.39 94.16 20.63 99.76 12.69 C 99.90 15.79 99.94 18.90 100.02 22.00 C 97.87 27.74 105.54 43.49 93.91 40.00 Z" />
<path fill="#27603f" d=" M 344.91 15.67 C 345.45 15.46 346.54 15.04 347.09 14.84 C 348.99 15.92 350.93 16.96 352.88 17.98 C 353.85 19.02 354.83 20.04 355.87 21.01 C 358.43 23.81 360.95 26.67 363.88 29.08 C 367.08 32.53 370.34 35.93 373.88 39.04 C 377.57 43.02 381.42 46.87 385.13 50.83 C 404.71 72.25 426.14 92.07 446.28 112.91 C 454.06 120.78 460.91 129.61 469.06 137.07 C 469.26 137.33 469.67 137.85 469.87 138.11 C 471.11 140.79 472.34 143.48 473.76 146.08 C 474.13 147.69 474.51 149.30 475.03 150.87 C 475.09 152.49 475.13 154.11 475.23 155.73 C 474.31 269.85 475.93 384.03 474.41 498.12 C 473.63 484.36 474.16 470.59 473.94 456.82 C 474.03 449.48 473.97 442.14 473.92 434.82 C 474.02 428.13 474.02 421.45 473.89 414.77 C 473.97 409.11 473.92 403.45 473.89 397.79 C 474.01 391.12 474.01 384.46 473.91 377.80 C 474.01 370.79 474.04 363.79 473.91 356.80 C 474.05 349.44 473.96 342.09 473.80 334.74 C 474.08 327.08 474.00 319.41 473.82 311.75 C 474.04 303.09 474.13 294.42 473.85 285.76 C 474.05 277.44 474.04 269.12 473.89 260.80 C 474.08 251.45 474.03 242.10 473.82 232.76 C 474.12 223.11 474.00 213.46 473.89 203.81 C 473.31 185.83 475.86 167.47 472.33 149.75 C 471.35 145.22 469.17 141.06 466.27 137.48 C 464.36 135.09 462.51 132.57 460.10 130.66 C 457.69 129.14 455.03 128.09 452.49 126.86 C 450.75 125.92 449.02 124.99 447.24 124.14 C 445.35 123.17 443.41 122.26 441.36 121.71 C 439.05 120.98 436.71 120.37 434.37 119.79 C 432.01 119.03 429.66 118.21 427.22 117.79 C 420.62 116.21 413.57 117.18 407.11 115.02 C 396.07 101.57 383.31 89.01 369.99 77.79 C 368.60 68.41 368.30 58.81 365.30 49.74 C 364.30 46.37 363.51 42.94 362.21 39.69 C 360.92 36.59 359.55 33.53 358.11 30.49 C 356.44 26.91 354.11 23.64 351.37 20.80 C 349.43 18.83 347.37 16.95 344.91 15.67 Z" />
<path fill="#dcdedd" d=" M 352.88 17.98 C 373.32 24.62 391.09 37.74 405.25 53.75 C 427.50 77.53 454.51 98.40 468.42 128.63 C 473.38 137.06 479.62 144.93 482.48 154.44 C 485.87 168.03 484.90 182.13 485.00 196.00 C 485.00 294.34 484.99 392.68 485.01 491.02 C 484.65 498.15 485.36 506.53 479.84 512.00 L 474.59 512.00 C 476.58 510.16 478.83 508.53 480.41 506.29 C 481.14 505.35 481.91 504.39 482.29 503.24 C 483.95 448.24 482.52 393.07 483.00 338.00 C 482.55 278.92 483.89 219.70 482.35 160.71 C 480.82 153.19 477.67 146.11 473.03 140.02 C 463.54 125.88 455.33 110.74 444.19 97.80 C 426.24 80.07 409.65 61.01 391.08 43.91 C 380.01 35.32 367.86 28.18 355.87 21.01 C 354.83 20.04 353.85 19.02 352.88 17.98 Z" />
<path fill="#dedddd" d=" M 351.37 20.80 C 354.11 23.64 356.44 26.91 358.11 30.49 C 351.36 44.27 357.76 59.68 359.02 74.03 C 362.00 89.38 358.72 107.61 369.67 120.30 C 380.44 133.03 398.71 130.32 413.47 132.40 C 428.95 133.18 446.14 140.45 460.10 130.66 C 462.51 132.57 464.36 135.09 466.27 137.48 C 454.36 143.13 440.61 140.83 427.86 138.18 C 409.30 133.31 387.94 138.71 371.27 127.73 C 354.35 115.04 358.49 92.13 355.19 73.86 C 354.15 56.17 343.65 38.12 351.37 20.80 Z" />
<path fill="#c9cbca" d=" M 355.87 21.01 C 367.86 28.18 380.01 35.32 391.08 43.91 C 409.65 61.01 426.24 80.07 444.19 97.80 C 455.33 110.74 463.54 125.88 473.03 140.02 C 471.98 139.37 470.92 138.75 469.87 138.11 C 469.67 137.85 469.26 137.33 469.06 137.07 C 465.82 130.66 460.55 125.58 455.93 120.16 C 448.72 106.93 438.56 95.62 427.76 85.24 C 407.37 65.52 388.96 43.18 363.88 29.08 C 360.95 26.67 358.43 23.81 355.87 21.01 Z" />
<path fill="#4f8667" d=" M 100.02 22.00 L 100.98 22.00 C 101.55 27.79 99.62 35.75 102.02 39.96 C 128.43 39.98 154.85 40.23 181.26 39.74 C 202.26 40.20 223.28 40.16 244.28 39.71 C 265.04 41.71 286.66 37.24 306.98 41.81 C 307.66 42.82 308.34 43.83 309.02 44.84 C 309.34 45.84 309.66 46.84 310.00 47.84 C 310.03 48.29 310.10 49.20 310.13 49.65 C 310.13 50.17 310.14 51.20 310.14 51.72 C 310.15 52.47 310.15 53.98 310.15 54.74 C 310.15 56.07 310.17 57.40 310.21 58.74 C 310.10 62.56 309.95 66.38 309.86 70.21 C 308.28 65.29 308.37 59.61 305.75 55.09 C 207.84 54.87 109.92 55.06 12.00 55.00 C 11.91 52.27 11.84 49.53 11.80 46.80 C 12.89 39.81 21.13 39.08 26.74 39.72 C 49.12 40.29 71.52 39.89 93.91 40.00 C 105.54 43.49 97.87 27.74 100.02 22.00 Z" />
<path fill="#b5b6b5" d=" M 363.88 29.08 C 388.96 43.18 407.37 65.52 427.76 85.24 C 438.56 95.62 448.72 106.93 455.93 120.16 C 444.13 108.43 434.97 93.82 422.14 82.89 C 406.58 67.77 392.63 50.42 373.88 39.04 C 370.34 35.93 367.08 32.53 363.88 29.08 Z" />
<path fill="#cfcfcf" d=" M 359.02 74.03 C 357.76 59.68 351.36 44.27 358.11 30.49 C 359.55 33.53 360.92 36.59 362.21 39.69 C 357.04 49.97 361.47 62.07 362.02 73.00 C 364.45 87.65 362.34 103.95 371.26 116.74 C 383.77 131.96 405.60 127.07 422.86 130.23 C 432.21 130.92 445.14 135.09 452.49 126.86 C 455.03 128.09 457.69 129.14 460.10 130.66 C 446.14 140.45 428.95 133.18 413.47 132.40 C 398.71 130.32 380.44 133.03 369.67 120.30 C 358.72 107.61 362.00 89.38 359.02 74.03 Z" />
<path fill="#9da19f" d=" M 373.88 39.04 C 392.63 50.42 406.58 67.77 422.14 82.89 C 434.97 93.82 444.13 108.43 455.93 120.16 C 460.55 125.58 465.82 130.66 469.06 137.07 C 460.91 129.61 454.06 120.78 446.28 112.91 C 436.82 98.94 423.94 87.79 412.25 75.75 C 403.29 67.36 395.61 57.44 385.13 50.83 C 381.42 46.87 377.57 43.02 373.88 39.04 Z" />
<path fill="#bfbfbf" d=" M 362.21 39.69 C 363.51 42.94 364.30 46.37 365.30 49.74 C 362.39 61.22 366.02 72.87 366.50 84.41 C 367.34 97.80 368.50 116.15 383.09 121.90 C 395.20 126.39 408.39 125.27 421.04 126.80 C 429.74 127.41 439.63 129.65 447.24 124.14 C 449.02 124.99 450.75 125.92 452.49 126.86 C 445.14 135.09 432.21 130.92 422.86 130.23 C 405.60 127.07 383.77 131.96 371.26 116.74 C 362.34 103.95 364.45 87.65 362.02 73.00 C 361.47 62.07 357.04 49.97 362.21 39.69 Z" />
<path fill="#d9d9d9" d=" M 306.98 41.81 C 317.30 42.32 323.85 53.33 322.98 62.98 C 322.69 94.79 323.69 126.65 322.47 158.42 C 321.98 170.08 310.44 177.27 299.60 176.62 C 233.73 177.14 167.87 177.03 102.02 178.00 C 102.02 177.50 102.01 176.50 102.01 176.00 C 167.65 174.76 233.31 175.01 298.98 174.91 C 309.82 175.28 321.37 167.85 320.85 155.92 C 321.22 123.94 320.89 91.96 321.02 59.98 C 320.30 53.39 316.36 45.56 309.02 44.84 C 308.34 43.83 307.66 42.82 306.98 41.81 Z" />
<path fill="#cdcdcc" d=" M 309.02 44.84 C 316.36 45.56 320.30 53.39 321.02 59.98 C 320.89 91.96 321.22 123.94 320.85 155.92 C 321.37 167.85 309.82 175.28 298.98 174.91 C 233.31 175.01 167.65 174.76 102.01 176.00 C 102.00 175.50 101.98 174.50 101.97 174.01 C 167.63 172.80 233.32 172.92 299.02 172.99 C 308.58 172.97 319.66 166.97 318.85 155.92 C 319.18 123.95 318.97 91.98 318.96 60.01 C 317.82 55.17 315.90 48.22 310.00 47.84 C 309.66 46.84 309.34 45.84 309.02 44.84 Z" />
<path fill="#b6c7bd" d=" M 10.71 54.71 C 11.07 52.07 11.34 49.41 11.80 46.80 C 11.84 49.53 11.91 52.27 12.00 55.00 C 12.00 60.67 11.98 66.33 12.01 72.00 C 11.98 78.33 11.96 84.67 12.01 91.00 C 11.99 97.33 11.96 103.67 12.01 110.00 C 11.99 118.00 11.95 126.00 12.02 134.00 C 11.99 141.06 12.08 148.13 11.82 155.19 C 9.70 121.78 11.96 88.18 10.71 54.71 Z" />
<path fill="#bec0bf" d=" M 310.00 47.84 C 315.90 48.22 317.82 55.17 318.96 60.01 C 318.97 91.98 319.18 123.95 318.85 155.92 C 319.66 166.97 308.58 172.97 299.02 172.99 C 233.32 172.92 167.63 172.80 101.97 174.01 C 101.98 173.51 101.99 172.50 102.00 172.00 C 168.62 171.43 235.24 170.71 301.89 170.84 C 311.19 171.19 317.67 162.80 316.93 153.99 C 317.10 123.99 316.97 93.98 316.99 63.98 C 317.48 58.53 315.63 51.92 310.13 49.65 C 310.10 49.20 310.03 48.29 310.00 47.84 Z" />
<path fill="#b0b2b0" d=" M 310.13 49.65 C 315.63 51.92 317.48 58.53 316.99 63.98 C 316.97 93.98 317.10 123.99 316.93 153.99 C 317.67 162.80 311.19 171.19 301.89 170.84 C 235.24 170.71 168.62 171.43 102.00 172.00 C 102.00 171.51 102.00 170.52 102.00 170.02 C 166.65 170.84 231.24 167.75 295.88 169.38 C 304.20 170.48 314.07 166.76 315.39 157.37 C 316.85 128.99 315.55 100.44 316.04 71.99 C 316.16 65.05 316.60 56.24 310.14 51.72 C 310.14 51.20 310.13 50.17 310.13 49.65 Z" />
<path fill="#acaead" d=" M 365.30 49.74 C 368.30 58.81 368.60 68.41 369.99 77.79 C 370.02 79.14 370.08 80.48 370.16 81.83 C 370.35 85.79 370.69 89.74 371.09 93.69 C 371.06 95.06 371.05 96.44 371.05 97.82 C 371.01 99.17 371.01 100.52 371.06 101.86 C 371.25 107.70 377.20 111.31 379.74 116.30 C 390.65 124.53 405.21 122.03 418.02 123.80 C 425.65 123.42 434.48 126.04 441.36 121.71 C 443.41 122.26 445.35 123.17 447.24 124.14 C 439.63 129.65 429.74 127.41 421.04 126.80 C 408.39 125.27 395.20 126.39 383.09 121.90 C 368.50 116.15 367.34 97.80 366.50 84.41 C 366.02 72.87 362.39 61.22 365.30 49.74 Z" />
<path fill="#7e8480" d=" M 385.13 50.83 C 395.61 57.44 403.29 67.36 412.25 75.75 C 423.94 87.79 436.82 98.94 446.28 112.91 C 426.14 92.07 404.71 72.25 385.13 50.83 Z" />
<path fill="#a2a5a3" d=" M 310.14 51.72 C 316.60 56.24 316.16 65.05 316.04 71.99 C 315.55 100.44 316.85 128.99 315.39 157.37 C 314.07 166.76 304.20 170.48 295.88 169.38 C 231.24 167.75 166.65 170.84 102.00 170.02 L 101.99 169.04 C 167.80 166.91 233.82 168.74 299.71 167.74 C 308.20 168.36 314.93 160.15 313.92 151.99 C 314.15 123.66 313.89 95.32 314.04 66.98 C 314.52 62.62 313.86 57.57 310.15 54.74 C 310.15 53.98 310.15 52.47 310.14 51.72 Z" />
<path fill="#f7f7f7" d=" M 332.65 56.66 C 336.12 49.15 343.08 59.91 343.81 64.07 C 353.11 85.29 345.69 110.07 356.32 130.68 C 369.25 146.47 392.23 141.19 410.01 143.99 C 431.31 145.12 450.07 156.36 470.69 160.30 C 475.07 164.39 472.39 171.45 472.47 176.56 C 471.41 181.28 471.67 187.28 467.09 190.12 C 433.15 216.47 400.28 244.22 366.06 270.19 C 365.63 257.24 366.59 244.23 365.74 231.32 C 339.83 217.91 314.00 203.92 287.98 190.99 C 262.18 203.85 236.59 217.60 211.00 231.04 C 209.37 245.34 209.21 262.76 210.96 277.04 C 236.55 289.93 261.96 303.19 287.21 316.73 C 286.73 329.78 287.36 342.85 286.72 355.89 C 282.52 365.66 271.21 369.71 263.99 376.97 C 260.48 380.53 255.16 377.99 250.87 378.17 C 250.57 377.93 249.97 377.45 249.68 377.21 C 249.34 363.82 251.49 349.94 249.30 336.75 C 237.42 330.01 224.99 324.31 213.03 317.73 C 212.10 317.29 211.13 316.98 210.12 316.81 C 209.69 345.79 210.36 374.78 209.80 403.77 C 172.66 430.06 138.86 461.32 102.10 488.29 C 101.93 405.29 101.94 322.28 102.09 239.27 C 125.61 223.70 146.20 203.66 169.08 187.10 C 186.02 182.90 203.69 184.06 221.00 184.00 C 251.44 183.27 282.03 185.67 312.36 182.37 C 323.42 181.05 329.70 169.93 329.61 159.60 C 330.64 125.30 328.98 90.80 332.65 56.66 Z" />
<path fill="#f0f3f1" d=" M 8.01 74.98 C 8.62 68.28 8.06 61.04 10.71 54.71 C 11.96 88.18 9.70 121.78 11.82 155.19 C 11.87 155.61 11.97 156.43 12.02 156.84 C 11.34 165.85 17.07 175.10 26.39 176.59 C 46.66 179.92 67.45 176.91 87.90 178.11 C 92.23 178.92 95.03 183.71 93.95 188.00 C 94.08 290.00 93.94 392.01 94.01 494.01 C 94.10 500.56 96.89 506.56 100.35 512.00 L 97.19 512.00 C 93.77 507.06 91.27 501.17 91.97 495.02 C 92.01 393.35 92.05 291.67 91.95 190.00 C 92.71 186.65 91.32 183.19 88.69 181.17 C 67.15 180.03 45.32 182.90 23.98 179.00 C 13.17 176.96 8.24 165.38 8.45 155.43 C 7.44 128.63 8.24 101.79 8.01 74.98 Z" />
<path fill="#4a8262" d=" M 12.00 55.00 C 109.92 55.06 207.84 54.87 305.75 55.09 C 308.37 59.61 308.28 65.29 309.86 70.21 C 309.96 75.54 310.01 80.87 309.89 86.20 C 308.31 81.69 309.12 75.86 305.73 72.13 C 292.85 71.77 279.96 72.09 267.08 72.00 C 265.61 69.07 269.32 61.24 265.98 60.02 C 249.73 60.07 233.45 59.74 217.21 60.14 C 216.16 69.76 214.90 79.35 213.19 88.87 C 208.89 88.25 204.20 87.09 200.05 88.92 C 199.97 85.83 200.14 82.71 199.40 79.69 C 197.96 69.87 190.47 60.54 179.93 60.13 C 165.63 59.86 151.32 59.92 137.02 60.04 C 134.60 62.85 136.47 69.49 135.98 73.99 C 131.27 75.93 120.68 70.41 118.64 76.14 C 114.68 67.56 107.15 59.88 97.16 59.72 C 81.94 57.12 64.29 59.14 54.12 72.10 C 40.08 71.95 26.05 72.00 12.01 72.00 C 11.98 66.33 12.00 60.67 12.00 55.00 Z" />
<path fill="#969997" d=" M 310.15 54.74 C 313.86 57.57 314.52 62.62 314.04 66.98 C 313.89 95.32 314.15 123.66 313.92 151.99 C 314.93 160.15 308.20 168.36 299.71 167.74 C 233.82 168.74 167.80 166.91 101.99 169.04 C 102.00 168.53 102.01 167.52 102.01 167.02 C 166.33 165.90 230.67 165.81 295.02 166.04 C 303.28 167.48 313.63 161.42 311.93 151.99 C 312.13 123.65 311.92 95.31 312.02 66.97 C 313.09 63.83 311.56 61.26 310.21 58.74 C 310.17 57.40 310.15 56.07 310.15 54.74 Z" />
<path fill="#fdfefe" d=" M 54.12 72.10 C 64.29 59.14 81.94 57.12 97.16 59.72 C 107.15 59.88 114.68 67.56 118.64 76.14 C 119.33 78.38 120.14 80.58 120.72 82.85 C 113.58 84.43 106.41 86.02 99.16 86.96 C 96.47 84.12 94.81 79.41 90.23 78.81 C 87.13 78.19 83.73 77.31 80.71 78.69 C 72.32 81.59 68.88 90.80 68.97 98.99 C 68.26 108.60 70.07 121.84 80.78 125.19 C 84.26 126.16 87.75 126.18 91.26 125.26 C 96.92 124.00 103.79 121.33 101.01 114.03 C 97.87 111.61 90.89 113.45 86.03 112.98 C 85.89 108.31 85.96 103.65 85.90 98.99 C 85.98 98.26 86.16 96.81 86.24 96.09 C 97.81 95.97 109.39 95.81 120.96 96.05 C 121.11 107.80 120.78 119.55 121.18 131.29 C 104.25 147.63 73.20 151.63 55.89 134.12 C 50.78 126.96 46.98 118.84 45.91 110.02 C 45.97 103.99 45.97 97.96 46.34 91.94 C 47.47 84.83 50.20 78.12 54.12 72.10 Z" />
<path fill="#898e8b" d=" M 310.21 58.74 C 311.56 61.26 313.09 63.83 312.02 66.97 C 311.92 95.31 312.13 123.65 311.93 151.99 C 313.63 161.42 303.28 167.48 295.02 166.04 C 230.67 165.81 166.33 165.90 102.01 167.02 C 102.04 166.54 102.08 165.59 102.11 165.12 C 147.08 163.60 192.08 163.31 237.00 163.91 C 258.98 160.85 281.55 167.45 303.26 162.29 C 306.24 161.54 308.69 159.31 309.26 156.23 C 310.86 132.97 309.73 109.53 309.89 86.20 C 310.01 80.87 309.96 75.54 309.86 70.21 C 309.95 66.38 310.10 62.56 310.21 58.74 Z" />
<path fill="#9cb8a8" d=" M 135.98 73.99 C 136.47 69.49 134.60 62.85 137.02 60.04 C 136.99 88.02 136.98 116.00 137.02 143.97 C 134.54 141.58 136.53 135.12 135.97 131.00 C 136.01 121.00 136.05 111.00 135.98 101.00 C 136.02 91.99 136.03 82.99 135.98 73.99 Z" />
<path fill="#feffff" d=" M 137.02 60.04 C 151.32 59.92 165.63 59.86 179.93 60.13 C 190.47 60.54 197.96 69.87 199.40 79.69 C 199.33 83.89 199.31 88.09 199.34 92.30 C 197.83 105.34 185.47 114.89 172.30 113.39 C 168.20 113.16 164.10 113.04 160.01 113.02 C 157.52 121.42 159.74 134.01 158.98 143.97 C 151.66 144.13 144.34 144.13 137.02 143.97 C 136.98 116.00 136.99 88.02 137.02 60.04 Z" />
<path fill="#fdfefd" d=" M 217.21 60.14 C 233.45 59.74 249.73 60.07 265.98 60.02 C 266.00 66.33 266.00 72.65 266.00 78.97 C 255.37 79.63 244.03 77.77 233.76 79.76 C 232.29 82.81 232.42 86.63 231.99 90.02 C 241.67 86.29 253.76 84.99 261.75 92.99 C 266.54 97.00 268.79 102.83 270.23 108.71 C 270.17 112.23 270.10 115.78 270.29 119.30 C 268.89 124.76 266.89 130.09 263.93 134.90 C 249.89 151.28 218.65 148.44 209.96 127.99 C 209.36 125.68 208.74 123.39 208.27 121.05 C 215.42 120.85 222.48 119.61 229.61 119.13 C 229.98 123.18 232.08 126.67 235.94 128.25 C 238.06 129.93 241.46 130.56 243.09 128.15 C 251.56 123.98 251.76 108.80 243.75 104.24 C 238.21 100.77 232.85 104.94 228.71 108.48 C 222.82 108.01 216.81 107.52 211.14 105.73 C 211.27 100.05 212.53 94.50 213.19 88.87 C 214.90 79.35 216.16 69.76 217.21 60.14 Z" />
<path fill="#d2dfd7" d=" M 265.98 60.02 C 269.32 61.24 265.61 69.07 267.08 72.00 C 267.05 73.75 266.99 77.25 266.96 78.99 L 266.00 78.97 C 266.00 72.65 266.00 66.33 265.98 60.02 Z" />
<path fill="#437b5b" d=" M 12.01 72.00 C 26.05 72.00 40.08 71.95 54.12 72.10 C 50.20 78.12 47.47 84.83 46.34 91.94 C 35.00 90.09 23.45 91.28 12.01 91.00 C 11.96 84.67 11.98 78.33 12.01 72.00 Z" />
<path fill="#447a5b" d=" M 267.08 72.00 C 279.96 72.09 292.85 71.77 305.73 72.13 C 309.12 75.86 308.31 81.69 309.89 86.20 C 309.73 109.53 310.86 132.97 309.26 156.23 C 309.07 148.82 308.98 141.41 308.97 134.00 C 309.02 126.00 309.02 118.00 309.00 110.00 C 309.18 103.65 309.86 96.95 306.55 91.24 C 291.83 90.81 277.08 90.79 262.36 91.26 C 262.21 91.69 261.90 92.55 261.75 92.99 C 253.76 84.99 241.67 86.29 231.99 90.02 C 232.42 86.63 232.29 82.81 233.76 79.76 C 244.13 78.95 258.19 82.04 266.96 78.99 C 266.99 77.25 267.05 73.75 267.08 72.00 Z" />
<path fill="#417858" d=" M 118.64 76.14 C 120.68 70.41 131.27 75.93 135.98 73.99 C 136.03 82.99 136.02 91.99 135.98 101.00 C 131.34 100.99 126.71 101.00 122.07 101.00 C 121.56 99.55 122.99 96.13 120.96 96.05 C 109.39 95.81 97.81 95.97 86.24 96.09 C 86.16 96.81 85.98 98.26 85.90 98.99 C 80.25 99.00 74.61 98.99 68.97 98.99 C 68.88 90.80 72.32 81.59 80.71 78.69 C 83.88 78.71 87.06 78.78 90.23 78.81 C 94.81 79.41 96.47 84.12 99.16 86.96 C 106.41 86.02 113.58 84.43 120.72 82.85 C 120.14 80.58 119.33 78.38 118.64 76.14 Z" />
<path fill="#d0ded6" d=" M 160.01 95.94 C 158.88 92.46 157.39 80.70 160.00 77.03 L 160.03 78.01 C 160.00 83.98 160.00 89.96 160.01 95.94 Z" />
<path fill="#7aa28b" d=" M 160.00 77.03 C 164.53 76.36 168.20 76.68 171.02 77.99 C 167.34 77.98 163.69 78.00 160.03 78.01 L 160.00 77.03 Z" />
<path fill="#86ab96" d=" M 80.71 78.69 C 83.73 77.31 87.13 78.19 90.23 78.81 C 87.06 78.78 83.88 78.71 80.71 78.69 Z" />
<path fill="#427a5a" d=" M 160.03 78.01 C 163.69 78.00 167.34 77.98 171.02 77.99 C 176.89 78.97 179.19 87.88 175.24 92.24 C 171.80 96.97 165.18 95.96 160.01 95.94 C 160.00 89.96 160.00 83.98 160.03 78.01 Z" />
<path fill="#3c6e52" d=" M 369.99 77.79 C 383.31 89.01 396.07 101.57 407.11 115.02 C 404.47 115.01 401.84 114.99 399.22 114.96 C 391.46 102.39 375.94 95.19 370.16 81.83 C 370.08 80.48 370.02 79.14 369.99 77.79 Z" />
<path fill="#729c84" d=" M 233.76 79.76 C 244.03 77.77 255.37 79.63 266.00 78.97 L 266.96 78.99 C 258.19 82.04 244.13 78.95 233.76 79.76 Z" />
<path fill="#c1d3c9" d=" M 199.40 79.69 C 200.14 82.71 199.97 85.83 200.05 88.92 C 199.82 90.05 199.59 91.17 199.34 92.30 C 199.31 88.09 199.33 83.89 199.40 79.69 Z" />
<path fill="#588269" d=" M 370.16 81.83 C 375.94 95.19 391.46 102.39 399.22 114.96 C 386.59 114.29 381.50 99.29 371.09 93.69 C 370.69 89.74 370.35 85.79 370.16 81.83 Z" />
<path fill="#366d4d" d=" M 200.05 88.92 C 204.20 87.09 208.89 88.25 213.19 88.87 C 212.53 94.50 211.27 100.05 211.14 105.73 C 216.81 107.52 222.82 108.01 228.71 108.48 C 232.85 104.94 238.21 100.77 243.75 104.24 C 251.76 108.80 251.56 123.98 243.09 128.15 C 241.30 128.17 237.73 128.22 235.94 128.25 C 232.08 126.67 229.98 123.18 229.61 119.13 C 222.48 119.61 215.42 120.85 208.27 121.05 C 208.74 123.39 209.36 125.68 209.96 127.99 C 193.31 127.99 176.67 128.01 160.02 128.00 C 159.98 123.34 159.98 118.69 160.02 114.04 C 164.11 113.93 168.22 113.84 172.30 113.39 C 185.47 114.89 197.83 105.34 199.34 92.30 C 199.59 91.17 199.82 90.05 200.05 88.92 Z" />
<path fill="#3b7353" d=" M 12.01 91.00 C 23.45 91.28 35.00 90.09 46.34 91.94 C 45.97 97.96 45.97 103.99 45.91 110.02 C 34.61 109.98 23.31 110.00 12.01 110.00 C 11.96 103.67 11.99 97.33 12.01 91.00 Z" />
<path fill="#3b7353" d=" M 262.36 91.26 C 277.08 90.79 291.83 90.81 306.55 91.24 C 309.86 96.95 309.18 103.65 309.00 110.00 C 296.37 110.01 283.75 109.95 271.12 110.07 C 270.90 109.73 270.46 109.05 270.23 108.71 C 268.79 102.83 266.54 97.00 261.75 92.99 C 261.90 92.55 262.21 91.69 262.36 91.26 Z" />
<path fill="#75897d" d=" M 371.09 93.69 C 381.50 99.29 386.59 114.29 399.22 114.96 C 401.84 114.99 404.47 115.01 407.11 115.02 C 413.57 117.18 420.62 116.21 427.22 117.79 C 414.70 119.82 401.43 119.67 389.30 115.74 C 383.04 109.95 377.44 103.47 371.05 97.82 C 371.05 96.44 371.06 95.06 371.09 93.69 Z" />
<path fill="#cddbd3" d=" M 120.96 96.05 C 122.99 96.13 121.56 99.55 122.07 101.00 C 121.95 110.97 122.00 120.95 122.02 130.93 L 121.18 131.29 C 120.78 119.55 121.11 107.80 120.96 96.05 Z" />
<path fill="#89948e" d=" M 371.05 97.82 C 377.44 103.47 383.04 109.95 389.30 115.74 C 401.43 119.67 414.70 119.82 427.22 117.79 C 429.66 118.21 432.01 119.03 434.37 119.79 C 421.85 124.21 408.06 120.29 395.13 119.80 C 383.34 120.33 379.50 107.55 371.06 101.86 C 371.01 100.52 371.01 99.17 371.05 97.82 Z" />
<path fill="#366d4d" d=" M 68.97 98.99 C 74.61 98.99 80.25 99.00 85.90 98.99 C 85.96 103.65 85.89 108.31 86.03 112.98 C 89.17 115.37 96.16 113.55 101.01 114.03 C 103.79 121.33 96.92 124.00 91.26 125.26 C 87.76 125.21 84.27 125.14 80.78 125.19 C 70.07 121.84 68.26 108.60 68.97 98.99 Z" />
<path fill="#336b4b" d=" M 122.07 101.00 C 126.71 101.00 131.34 100.99 135.98 101.00 C 136.05 111.00 136.01 121.00 135.97 131.00 C 131.32 130.99 126.67 130.97 122.02 130.93 C 122.00 120.95 121.95 110.97 122.07 101.00 Z" />
<path fill="#9aa19d" d=" M 371.06 101.86 C 379.50 107.55 383.34 120.33 395.13 119.80 C 408.06 120.29 421.85 124.21 434.37 119.79 C 436.71 120.37 439.05 120.98 441.36 121.71 C 434.48 126.04 425.65 123.42 418.02 123.80 C 405.21 122.03 390.65 124.53 379.74 116.30 C 377.20 111.31 371.25 107.70 371.06 101.86 Z" />
<path fill="#789d88" d=" M 270.23 108.71 C 270.46 109.05 270.90 109.73 271.12 110.07 C 270.99 113.15 271.27 116.33 270.29 119.30 C 270.10 115.78 270.17 112.23 270.23 108.71 Z" />
<path fill="#316949" d=" M 12.01 110.00 C 23.31 110.00 34.61 109.98 45.91 110.02 C 46.98 118.84 50.78 126.96 55.89 134.12 C 41.27 133.86 26.64 134.05 12.02 134.00 C 11.95 126.00 11.99 118.00 12.01 110.00 Z" />
<path fill="#316849" d=" M 271.12 110.07 C 283.75 109.95 296.37 110.01 309.00 110.00 C 309.02 118.00 309.02 126.00 308.97 134.00 C 294.00 134.73 278.75 132.57 263.93 134.90 C 266.89 130.09 268.89 124.76 270.29 119.30 C 271.27 116.33 270.99 113.15 271.12 110.07 Z" />
<path fill="#679179" d=" M 86.03 112.98 C 90.89 113.45 97.87 111.61 101.01 114.03 C 96.16 113.55 89.17 115.37 86.03 112.98 Z" />
<path fill="#ccd9d2" d=" M 158.98 143.97 C 159.74 134.01 157.52 121.42 160.01 113.02 L 160.02 114.04 C 159.98 118.69 159.98 123.34 160.02 128.00 C 159.07 132.73 161.67 140.77 158.98 143.97 Z" />
<path fill="#679179" d=" M 160.01 113.02 C 164.10 113.04 168.20 113.16 172.30 113.39 C 168.22 113.84 164.11 113.93 160.02 114.04 L 160.01 113.02 Z" />
<path fill="#799d89" d=" M 80.78 125.19 C 84.27 125.14 87.76 125.21 91.26 125.26 C 87.75 126.18 84.26 126.16 80.78 125.19 Z" />
<path fill="#275f3f" d=" M 160.02 128.00 C 176.67 128.01 193.31 127.99 209.96 127.99 C 218.65 148.44 249.89 151.28 263.93 134.90 C 278.75 132.57 294.00 134.73 308.97 134.00 C 308.98 141.41 309.07 148.82 309.26 156.23 C 308.69 159.31 306.24 161.54 303.26 162.29 C 235.88 161.68 168.48 162.08 101.09 162.07 C 100.98 165.34 100.98 168.63 100.95 171.90 L 100.01 172.22 C 100.01 171.43 100.01 169.84 100.01 169.05 C 99.99 167.30 99.94 163.81 99.92 162.06 C 74.54 161.97 49.15 161.86 23.77 162.18 C 22.09 162.13 20.40 162.14 18.72 162.14 L 17.71 162.11 C 16.77 161.77 15.82 161.41 14.89 161.05 C 13.97 159.62 12.99 158.23 12.02 156.84 C 11.97 156.43 11.87 155.61 11.82 155.19 C 12.08 148.13 11.99 141.06 12.02 134.00 C 26.64 134.05 41.27 133.86 55.89 134.12 C 73.20 151.63 104.25 147.63 121.18 131.29 L 122.02 130.93 C 126.67 130.97 131.32 130.99 135.97 131.00 C 136.53 135.12 134.54 141.58 137.02 143.97 C 144.34 144.13 151.66 144.13 158.98 143.97 C 161.67 140.77 159.07 132.73 160.02 128.00 Z" />
<path fill="#7b9f8b" d=" M 235.94 128.25 C 237.73 128.22 241.30 128.17 243.09 128.15 C 241.46 130.56 238.06 129.93 235.94 128.25 Z" />
<path fill="#a7adaa" d=" M 469.87 138.11 C 470.92 138.75 471.98 139.37 473.03 140.02 C 477.67 146.11 480.82 153.19 482.35 160.71 C 481.73 274.87 481.85 389.07 482.29 503.24 C 481.91 504.39 481.14 505.35 480.41 506.29 L 479.54 506.50 C 479.76 505.39 479.96 504.28 480.15 503.18 C 482.14 444.89 480.43 386.38 481.00 328.00 C 480.53 271.93 481.92 215.68 480.34 159.71 C 478.87 154.89 477.63 149.60 473.76 146.08 C 472.34 143.48 471.11 140.79 469.87 138.11 Z" />
<path fill="#707974" d=" M 473.76 146.08 C 477.63 149.60 478.87 154.89 480.34 159.71 C 479.64 274.19 480.03 388.69 480.15 503.18 C 479.96 504.28 479.76 505.39 479.54 506.50 C 479.19 506.69 478.48 507.05 478.12 507.23 L 477.13 507.16 C 474.70 503.24 481.19 501.32 478.94 496.98 C 479.11 390.32 478.91 283.66 479.04 177.00 C 478.67 168.37 480.47 158.32 475.03 150.87 C 474.51 149.30 474.13 147.69 473.76 146.08 Z" />
<path fill="#495b51" d=" M 475.03 150.87 C 480.47 158.32 478.67 168.37 479.04 177.00 C 478.91 283.66 479.11 390.32 478.94 496.98 C 481.19 501.32 474.70 503.24 477.13 507.16 C 476.71 507.14 475.89 507.10 475.47 507.08 L 474.95 506.16 C 447.61 503.42 418.15 505.79 390.00 505.00 C 296.26 505.21 202.51 504.59 108.78 505.31 C 106.80 503.52 105.72 501.01 103.99 499.00 C 104.68 499.02 106.06 499.05 106.75 499.07 C 107.75 500.15 108.71 501.28 109.83 502.25 C 229.78 504.03 349.97 502.44 470.02 503.04 C 473.83 504.56 479.64 502.31 477.00 497.00 C 477.02 384.99 476.96 272.98 477.03 160.97 C 477.15 159.03 476.05 157.39 475.23 155.73 C 475.13 154.11 475.09 152.49 475.03 150.87 Z" />
<path fill="#3f5348" d=" M 475.23 155.73 C 476.05 157.39 477.15 159.03 477.03 160.97 C 476.96 272.98 477.02 384.99 477.00 497.00 C 479.64 502.31 473.83 504.56 470.02 503.04 C 349.97 502.44 229.78 504.03 109.83 502.25 C 229.17 501.57 348.54 502.37 467.89 501.84 C 470.18 501.23 474.87 502.08 474.45 498.88 L 474.41 498.12 C 475.93 384.03 474.31 269.85 475.23 155.73 Z" />
<path fill="#e1e8e4" d=" M 12.02 156.84 C 12.99 158.23 13.97 159.62 14.89 161.05 C 15.83 168.15 21.58 173.23 28.40 174.60 C 48.35 175.97 68.44 173.90 88.36 175.60 C 94.78 176.30 97.43 183.33 96.92 189.01 C 97.16 292.33 96.85 395.66 97.07 498.98 C 97.47 504.17 101.28 508.05 104.25 512.00 L 100.35 512.00 C 96.89 506.56 94.10 500.56 94.01 494.01 C 93.94 392.01 94.08 290.00 93.95 188.00 C 95.03 183.71 92.23 178.92 87.90 178.11 C 67.45 176.91 46.66 179.92 26.39 176.59 C 17.07 175.10 11.34 165.85 12.02 156.84 Z" />
<path fill="#8c938f" d=" M 480.34 159.71 C 481.92 215.68 480.53 271.93 481.00 328.00 C 480.43 386.38 482.14 444.89 480.15 503.18 C 480.03 388.69 479.64 274.19 480.34 159.71 Z" />
<path fill="#d2dbd6" d=" M 14.89 161.05 C 15.82 161.41 16.77 161.77 17.71 162.11 C 20.67 176.10 39.99 172.51 50.00 173.03 C 64.44 175.30 81.73 168.38 94.78 176.22 C 97.28 178.31 98.76 181.65 97.95 185.00 C 98.04 286.67 98.02 388.35 97.96 490.02 C 97.32 493.54 98.30 496.97 99.71 500.13 C 100.86 505.86 105.32 509.64 110.38 512.00 L 104.25 512.00 C 101.28 508.05 97.47 504.17 97.07 498.98 C 96.85 395.66 97.16 292.33 96.92 189.01 C 97.43 183.33 94.78 176.30 88.36 175.60 C 68.44 173.90 48.35 175.97 28.40 174.60 C 21.58 173.23 15.83 168.15 14.89 161.05 Z" />
<path fill="#c0c4c2" d=" M 482.35 160.71 C 483.89 219.70 482.55 278.92 483.00 338.00 C 482.52 393.07 483.95 448.24 482.29 503.24 C 481.85 389.07 481.73 274.87 482.35 160.71 Z" />
<path fill="#c1cec7" d=" M 17.71 162.11 L 18.72 162.14 C 22.91 163.80 24.77 168.98 29.64 169.40 C 48.67 170.97 67.85 169.33 86.93 170.12 C 92.90 169.88 96.89 173.73 99.90 178.22 C 100.04 285.17 100.11 392.14 99.87 499.09 L 99.71 500.13 C 98.30 496.97 97.32 493.54 97.96 490.02 C 98.02 388.35 98.04 286.67 97.95 185.00 C 98.76 181.65 97.28 178.31 94.78 176.22 C 81.73 168.38 64.44 175.30 50.00 173.03 C 39.99 172.51 20.67 176.10 17.71 162.11 Z" />
<path fill="#a6aba8" d=" M 18.72 162.14 C 20.40 162.14 22.09 162.13 23.77 162.18 C 24.75 162.52 25.73 162.87 26.71 163.21 C 28.27 164.85 30.06 166.34 32.40 166.60 C 50.89 167.69 69.44 166.49 87.94 167.11 C 92.73 167.36 96.86 169.70 99.97 173.18 C 99.96 174.86 99.92 176.54 99.90 178.22 C 96.89 173.73 92.90 169.88 86.93 170.12 C 67.85 169.33 48.67 170.97 29.64 169.40 C 24.77 168.98 22.91 163.80 18.72 162.14 Z" />
<path fill="#707f76" d=" M 23.77 162.18 C 49.15 161.86 74.54 161.97 99.92 162.06 C 99.94 163.81 99.99 167.30 100.01 169.05 C 92.13 160.65 80.18 163.38 70.00 162.97 C 55.57 163.11 41.13 162.77 26.71 163.21 C 25.73 162.87 24.75 162.52 23.77 162.18 Z" />
<path fill="#78817b" d=" M 101.09 162.07 C 168.48 162.08 235.88 161.68 303.26 162.29 C 281.55 167.45 258.98 160.85 237.00 163.91 C 192.08 163.31 147.08 163.60 102.11 165.12 C 102.08 165.59 102.04 166.54 102.01 167.02 C 102.01 167.52 102.00 168.53 101.99 169.04 L 102.00 170.02 C 102.00 170.52 102.00 171.51 102.00 172.00 C 101.99 172.50 101.98 173.51 101.97 174.01 L 100.99 173.97 C 100.98 173.45 100.96 172.42 100.95 171.90 C 100.98 168.63 100.98 165.34 101.09 162.07 Z" />
<path fill="#8f9591" d=" M 26.71 163.21 C 41.13 162.77 55.57 163.11 70.00 162.97 C 80.18 163.38 92.13 160.65 100.01 169.05 C 100.01 169.84 100.01 171.43 100.01 172.22 L 99.97 173.18 C 96.86 169.70 92.73 167.36 87.94 167.11 C 69.44 166.49 50.89 167.69 32.40 166.60 C 30.06 166.34 28.27 164.85 26.71 163.21 Z" />
<path fill="#5b8f71" d=" M 100.01 172.22 L 100.95 171.90 C 100.96 172.42 100.98 173.45 100.99 173.97 C 100.98 282.30 101.05 390.63 100.96 498.97 L 99.87 499.09 C 100.11 392.14 100.04 285.17 99.90 178.22 C 99.92 176.54 99.96 174.86 99.97 173.18 L 100.01 172.22 Z" />
<path fill="#b5cbbf" d=" M 100.99 173.97 L 101.97 174.01 C 101.98 174.50 102.00 175.50 102.01 176.00 C 102.01 176.50 102.02 177.50 102.02 178.00 C 102.02 178.75 102.01 180.26 102.01 181.02 C 101.99 182.70 102.00 184.39 102.02 186.08 C 102.00 203.81 101.92 221.54 102.09 239.27 C 101.94 322.28 101.93 405.29 102.10 488.29 C 102.04 491.47 101.84 494.74 102.10 497.93 C 116.66 498.07 131.23 498.10 145.79 497.90 C 162.08 497.99 178.38 498.16 194.67 497.87 C 196.50 497.90 200.17 497.97 202.01 498.00 L 201.99 498.99 C 170.25 499.07 138.50 498.89 106.75 499.07 C 106.06 499.05 104.68 499.02 103.99 499.00 C 103.24 498.99 101.72 498.97 100.96 498.97 C 101.05 390.63 100.98 282.30 100.99 173.97 Z" />
<path fill="#4c8464" d=" M 211.00 231.04 C 236.59 217.60 262.18 203.85 287.98 190.99 C 314.00 203.92 339.83 217.91 365.74 231.32 C 366.59 244.23 365.63 257.24 366.06 270.19 C 365.93 275.20 365.86 280.20 365.80 285.22 C 364.25 273.56 364.47 261.62 361.68 250.15 C 351.79 249.78 341.89 250.07 332.00 249.95 C 327.75 250.82 322.03 248.01 318.73 251.79 C 308.30 246.97 298.62 240.59 288.00 236.18 C 275.66 241.74 263.85 248.49 251.99 254.97 C 249.60 255.86 252.32 257.15 253.12 258.20 C 247.01 259.09 247.76 252.36 252.16 250.02 C 238.45 249.92 224.73 250.04 211.02 250.00 C 210.99 243.68 210.92 237.36 211.00 231.04 Z" />
<path fill="#edf1ef" d=" M 469.06 218.06 C 471.65 213.88 472.31 208.50 473.89 203.81 C 474.00 213.46 474.12 223.11 473.82 232.76 C 471.81 238.08 471.51 244.87 465.73 247.72 C 419.54 283.84 374.63 321.66 328.10 357.29 C 327.37 350.52 329.38 343.29 327.28 336.74 C 319.95 332.49 311.96 329.43 304.63 325.15 C 309.41 323.43 313.17 329.03 317.88 329.00 C 326.64 323.23 334.31 315.89 342.84 309.77 C 341.52 307.51 339.86 305.46 338.77 303.06 C 348.12 307.15 356.64 312.86 366.01 316.92 C 366.08 311.03 365.96 305.15 366.11 299.27 C 401.61 274.00 434.41 244.66 469.06 218.06 Z" />
<path fill="#739d85" d=" M 210.96 277.04 C 209.21 262.76 209.37 245.34 211.00 231.04 C 210.92 237.36 210.99 243.68 211.02 250.00 C 210.98 259.01 210.97 268.02 210.96 277.04 Z" />
<path fill="#e7edea" d=" M 465.73 247.72 C 471.51 244.87 471.81 238.08 473.82 232.76 C 474.03 242.10 474.08 251.45 473.89 260.80 C 472.21 265.46 470.47 270.27 466.19 273.17 C 433.03 299.30 400.35 326.05 367.13 352.10 C 362.68 356.21 356.42 357.98 353.11 363.23 C 345.15 367.85 336.79 371.75 328.84 376.38 C 327.55 370.09 327.94 363.65 328.10 357.29 C 374.63 321.66 419.54 283.84 465.73 247.72 Z" />
<path fill="#f6f7f6" d=" M 251.99 254.97 C 263.85 248.49 275.66 241.74 288.00 236.18 C 298.62 240.59 308.30 246.97 318.73 251.79 C 321.22 253.12 323.88 254.19 326.21 255.81 C 326.52 269.39 324.67 284.10 326.98 297.00 C 330.82 299.18 334.99 300.76 338.77 303.06 C 339.86 305.46 341.52 307.51 342.84 309.77 C 334.31 315.89 326.64 323.23 317.88 329.00 C 313.17 329.03 309.41 323.43 304.63 325.15 C 299.28 322.63 294.25 319.51 288.95 316.91 C 288.38 303.42 290.34 288.81 288.02 276.00 C 276.22 270.40 265.03 263.58 253.12 258.20 C 252.32 257.15 249.60 255.86 251.99 254.97 Z" />
<path fill="#447b5c" d=" M 211.02 250.00 C 224.73 250.04 238.45 249.92 252.16 250.02 C 247.76 252.36 247.01 259.09 253.12 258.20 C 265.03 263.58 276.22 270.40 288.02 276.00 C 288.03 289.72 287.96 303.44 288.01 317.16 L 287.21 316.73 C 261.96 303.19 236.55 289.93 210.96 277.04 C 210.97 268.02 210.98 259.01 211.02 250.00 Z" />
<path fill="#437b5b" d=" M 318.73 251.79 C 322.03 248.01 327.75 250.82 332.00 249.95 C 341.89 250.07 351.79 249.78 361.68 250.15 C 364.47 261.62 364.25 273.56 365.80 285.22 C 366.01 289.90 366.00 294.58 366.11 299.27 C 365.96 305.15 366.08 311.03 366.01 316.92 C 356.64 312.86 348.12 307.15 338.77 303.06 C 334.99 300.76 330.82 299.18 326.98 297.00 C 326.46 283.33 328.10 269.19 326.21 255.81 C 323.88 254.19 321.22 253.12 318.73 251.79 Z" />
<path fill="#bdcfc5" d=" M 326.21 255.81 C 328.10 269.19 326.46 283.33 326.98 297.00 C 324.67 284.10 326.52 269.39 326.21 255.81 Z" />
<path fill="#e1e9e5" d=" M 466.19 273.17 C 470.47 270.27 472.21 265.46 473.89 260.80 C 474.04 269.12 474.05 277.44 473.85 285.76 C 472.17 290.10 470.83 294.96 466.64 297.61 C 432.90 323.88 400.23 351.57 366.10 377.29 C 365.94 370.47 366.26 363.66 365.89 356.87 C 361.53 358.79 357.52 361.42 353.11 363.23 C 356.42 357.98 362.68 356.21 367.13 352.10 C 400.35 326.05 433.03 299.30 466.19 273.17 Z" />
<path fill="#ccd9d1" d=" M 288.02 276.00 C 290.34 288.81 288.38 303.42 288.95 316.91 L 288.01 317.16 C 287.96 303.44 288.03 289.72 288.02 276.00 Z" />
<path fill="#dae5df" d=" M 466.64 297.61 C 470.83 294.96 472.17 290.10 473.85 285.76 C 474.13 294.42 474.04 303.09 473.82 311.75 C 471.87 315.38 471.06 319.94 467.05 322.05 C 433.24 348.59 400.21 376.14 366.08 402.23 C 366.07 393.91 365.84 385.60 366.10 377.29 C 400.23 351.57 432.90 323.88 466.64 297.61 Z" />
<path fill="#d3e0d9" d=" M 467.05 322.05 C 471.06 319.94 471.87 315.38 473.82 311.75 C 474.00 319.41 474.08 327.08 473.80 334.74 C 471.88 338.39 471.05 342.94 467.05 345.05 C 407.10 392.73 347.44 440.76 287.67 488.65 C 284.31 491.66 279.70 493.63 277.68 497.89 C 265.67 497.98 253.66 498.20 241.65 497.86 C 257.24 482.29 276.18 470.25 292.72 455.68 C 293.98 454.57 291.20 453.74 290.72 452.82 C 315.07 438.01 339.67 423.60 364.35 409.36 C 366.39 408.96 365.70 406.74 365.88 405.24 C 365.93 404.48 366.03 402.98 366.08 402.23 C 400.21 376.14 433.24 348.59 467.05 322.05 Z" />
<path fill="#628c74" d=" M 210.12 316.81 C 211.13 316.98 212.10 317.29 213.03 317.73 C 208.44 325.20 211.92 338.19 211.02 348.00 C 211.00 360.00 210.94 372.00 211.02 384.00 C 211.00 392.05 211.01 400.11 210.86 408.17 C 209.75 407.02 210.13 405.20 209.80 403.77 C 210.36 374.78 209.69 345.79 210.12 316.81 Z" />
<path fill="#cddad2" d=" M 287.21 316.73 L 288.01 317.16 C 288.06 330.41 287.89 343.65 288.04 356.90 C 287.71 356.65 287.05 356.15 286.72 355.89 C 287.36 342.85 286.73 329.78 287.21 316.73 Z" />
<path fill="#376e4f" d=" M 288.01 317.16 L 288.95 316.91 C 294.25 319.51 299.28 322.63 304.63 325.15 C 311.96 329.43 319.95 332.49 327.28 336.74 C 326.95 349.47 326.82 362.21 327.03 374.95 C 326.92 376.37 327.60 377.19 329.06 377.43 C 327.68 378.73 325.78 378.89 324.00 379.14 C 324.69 378.46 325.36 377.76 326.02 377.05 C 313.36 370.35 300.38 364.15 288.04 356.90 C 287.89 343.65 288.06 330.41 288.01 317.16 Z" />
<path fill="#387050" d=" M 211.02 348.00 C 211.92 338.19 208.44 325.20 213.03 317.73 C 224.99 324.31 237.42 330.01 249.30 336.75 C 249.15 340.47 249.02 344.25 248.97 348.00 C 236.32 348.00 223.67 348.00 211.02 348.00 Z" />
<path fill="#ccdcd3" d=" M 467.05 345.05 C 471.05 342.94 471.88 338.39 473.80 334.74 C 473.96 342.09 474.05 349.44 473.91 356.80 C 469.22 367.39 458.22 372.56 450.00 380.00 C 401.56 419.65 351.76 457.72 303.79 497.90 C 295.08 498.00 286.38 498.13 277.68 497.89 C 279.70 493.63 284.31 491.66 287.67 488.65 C 347.44 440.76 407.10 392.73 467.05 345.05 Z" />
<path fill="#b4c7bc" d=" M 249.30 336.75 C 251.49 349.94 249.34 363.82 249.68 377.21 C 248.29 367.55 249.24 357.73 248.97 348.00 C 249.02 344.25 249.15 340.47 249.30 336.75 Z" />
<path fill="#cddad2" d=" M 327.28 336.74 C 329.38 343.29 327.37 350.52 328.10 357.29 C 327.94 363.65 327.55 370.09 328.84 376.38 L 329.06 377.43 C 327.60 377.19 326.92 376.37 327.03 374.95 C 326.82 362.21 326.95 349.47 327.28 336.74 Z" />
<path fill="#316949" d=" M 211.02 348.00 C 223.67 348.00 236.32 348.00 248.97 348.00 C 249.24 357.73 248.29 367.55 249.68 377.21 C 249.97 377.45 250.57 377.93 250.87 378.17 C 257.43 382.19 264.71 384.89 271.25 388.97 C 266.55 390.92 262.94 385.19 258.36 384.61 C 242.65 383.20 226.79 384.36 211.02 384.00 C 210.94 372.00 211.00 360.00 211.02 348.00 Z" />
<path fill="#e9efec" d=" M 263.99 376.97 C 271.21 369.71 282.52 365.66 286.72 355.89 C 287.05 356.15 287.71 356.65 288.04 356.90 C 300.38 364.15 313.36 370.35 326.02 377.05 C 325.36 377.76 324.69 378.46 324.00 379.14 C 311.60 384.26 300.55 392.41 288.00 397.02 C 282.04 395.35 276.81 391.64 271.25 388.97 C 264.71 384.89 257.43 382.19 250.87 378.17 C 255.16 377.99 260.48 380.53 263.99 376.97 Z" />
<path fill="#346b4b" d=" M 353.11 363.23 C 357.52 361.42 361.53 358.79 365.89 356.87 C 366.26 363.66 365.94 370.47 366.10 377.29 C 365.84 385.60 366.07 393.91 366.08 402.23 C 366.03 402.98 365.93 404.48 365.88 405.24 C 364.18 395.98 365.43 386.22 362.74 377.15 C 351.52 377.10 340.23 376.36 329.06 377.43 L 328.84 376.38 C 336.79 371.75 345.15 367.85 353.11 363.23 Z" />
<path fill="#c5d8cd" d=" M 450.00 380.00 C 458.22 372.56 469.22 367.39 473.91 356.80 C 474.04 363.79 474.01 370.79 473.91 377.80 C 472.04 380.87 470.39 384.27 467.34 386.37 C 431.33 414.99 395.55 443.87 359.68 472.66 C 350.17 481.53 337.84 487.81 329.69 497.89 C 321.05 498.03 312.42 498.09 303.79 497.90 C 351.76 457.72 401.56 419.65 450.00 380.00 Z" />
<path fill="#2b6242" d=" M 329.06 377.43 C 340.23 376.36 351.52 377.10 362.74 377.15 C 365.43 386.22 364.18 395.98 365.88 405.24 C 365.70 406.74 366.39 408.96 364.35 409.36 C 339.67 423.60 315.07 438.01 290.72 452.82 C 289.19 453.48 287.50 454.22 286.00 453.04 C 278.00 448.53 270.30 443.50 262.33 438.92 C 252.03 433.17 242.17 426.67 231.81 421.04 C 224.93 416.59 217.57 412.87 210.86 408.17 C 211.01 400.11 211.00 392.05 211.02 384.00 C 226.79 384.36 242.65 383.20 258.36 384.61 C 262.94 385.19 266.55 390.92 271.25 388.97 C 276.81 391.64 282.04 395.35 288.00 397.02 C 300.55 392.41 311.60 384.26 324.00 379.14 C 325.78 378.89 327.68 378.73 329.06 377.43 Z" />
<path fill="#bed3c8" d=" M 467.34 386.37 C 470.39 384.27 472.04 380.87 473.91 377.80 C 474.01 384.46 474.01 391.12 473.89 397.79 C 470.78 406.06 462.57 409.86 456.31 415.33 C 423.15 441.83 390.10 468.46 356.83 494.81 C 355.90 495.66 355.33 496.80 354.67 497.86 C 353.01 497.90 349.69 497.98 348.02 498.02 C 341.90 497.99 335.79 497.98 329.69 497.89 C 337.84 487.81 350.17 481.53 359.68 472.66 C 395.55 443.87 431.33 414.99 467.34 386.37 Z" />
<path fill="#b8cfc2" d=" M 456.31 415.33 C 462.57 409.86 470.78 406.06 473.89 397.79 C 473.92 403.45 473.97 409.11 473.89 414.77 C 472.09 418.20 470.36 421.76 467.20 424.18 C 437.80 447.78 408.39 471.40 378.82 494.81 C 377.88 495.66 377.33 496.83 376.68 497.90 C 369.34 498.04 362.00 498.00 354.67 497.86 C 355.33 496.80 355.90 495.66 356.83 494.81 C 390.10 468.46 423.15 441.83 456.31 415.33 Z" />
<path fill="#f0f3f1" d=" M 102.10 488.29 C 138.86 461.32 172.66 430.06 209.80 403.77 C 210.13 405.20 209.75 407.02 210.86 408.17 C 217.57 412.87 224.93 416.59 231.81 421.04 C 232.46 422.97 233.33 424.83 233.88 426.81 C 204.55 450.53 174.42 473.35 145.79 497.90 C 131.23 498.10 116.66 498.07 102.10 497.93 C 101.84 494.74 102.04 491.47 102.10 488.29 Z" />
<path fill="#b1cabc" d=" M 467.20 424.18 C 470.36 421.76 472.09 418.20 473.89 414.77 C 474.02 421.45 474.02 428.13 473.92 434.82 C 468.17 444.90 457.25 450.26 449.03 458.03 C 433.27 471.63 415.12 483.09 400.68 497.87 C 392.67 498.04 384.67 498.06 376.68 497.90 C 377.33 496.83 377.88 495.66 378.82 494.81 C 408.39 471.40 437.80 447.78 467.20 424.18 Z" />
<path fill="#e7edea" d=" M 231.81 421.04 C 242.17 426.67 252.03 433.17 262.33 438.92 C 262.08 440.64 261.57 442.28 260.81 443.84 C 239.16 462.26 215.42 478.66 194.67 497.87 C 178.38 498.16 162.08 497.99 145.79 497.90 C 174.42 473.35 204.55 450.53 233.88 426.81 C 233.33 424.83 232.46 422.97 231.81 421.04 Z" />
<path fill="#aac5b6" d=" M 449.03 458.03 C 457.25 450.26 468.17 444.90 473.92 434.82 C 473.97 442.14 474.03 449.48 473.94 456.82 C 461.84 473.66 441.36 482.59 427.67 497.88 C 418.66 498.07 409.67 498.03 400.68 497.87 C 415.12 483.09 433.27 471.63 449.03 458.03 Z" />
<path fill="#dde7e2" d=" M 262.33 438.92 C 270.30 443.50 278.00 448.53 286.00 453.04 C 287.50 454.22 289.19 453.48 290.72 452.82 C 291.20 453.74 293.98 454.57 292.72 455.68 C 276.18 470.25 257.24 482.29 241.65 497.86 C 228.44 498.14 215.22 497.94 202.01 498.00 C 200.17 497.97 196.50 497.90 194.67 497.87 C 215.42 478.66 239.16 462.26 260.81 443.84 C 261.57 442.28 262.08 440.64 262.33 438.92 Z" />
<path fill="#a0bfae" d=" M 427.67 497.88 C 441.36 482.59 461.84 473.66 473.94 456.82 C 474.16 470.59 473.63 484.36 474.41 498.12 C 458.83 497.79 443.24 498.22 427.67 497.88 Z" />
<path fill="#9cbcaa" d=" M 202.01 498.00 C 215.22 497.94 228.44 498.14 241.65 497.86 C 253.66 498.20 265.67 497.98 277.68 497.89 C 286.38 498.13 295.08 498.00 303.79 497.90 C 312.42 498.09 321.05 498.03 329.69 497.89 C 335.79 497.98 341.90 497.99 348.02 498.02 L 347.98 498.99 C 299.32 499.00 250.66 499.01 201.99 498.99 L 202.01 498.00 Z" />
<path fill="#81ab93" d=" M 348.02 498.02 C 349.69 497.98 353.01 497.90 354.67 497.86 C 362.00 498.00 369.34 498.04 376.68 497.90 C 384.67 498.06 392.67 498.04 400.68 497.87 C 409.67 498.03 418.66 498.07 427.67 497.88 C 443.24 498.22 458.83 497.79 474.41 498.12 L 474.45 498.88 C 432.30 499.15 390.14 498.94 347.98 498.99 L 348.02 498.02 Z" />
<path fill="#7d8c84" d=" M 99.87 499.09 L 100.96 498.97 C 101.72 498.97 103.24 498.99 103.99 499.00 C 105.72 501.01 106.80 503.52 108.78 505.31 C 230.76 507.02 352.90 505.33 474.95 506.16 L 475.47 507.08 C 354.97 506.91 234.48 507.02 113.98 507.02 C 109.99 508.07 105.74 506.44 104.14 502.68 C 103.56 500.47 101.92 499.66 99.71 500.13 L 99.87 499.09 Z" />
<path fill="#345542" d=" M 106.75 499.07 C 138.50 498.89 170.25 499.07 201.99 498.99 C 250.66 499.01 299.32 499.00 347.98 498.99 C 390.14 498.94 432.30 499.15 474.45 498.88 C 474.87 502.08 470.18 501.23 467.89 501.84 C 348.54 502.37 229.17 501.57 109.83 502.25 C 108.71 501.28 107.75 500.15 106.75 499.07 Z" />
<path fill="#bfc6c2" d=" M 99.71 500.13 C 101.92 499.66 103.56 500.47 104.14 502.68 C 101.88 505.47 105.84 506.92 107.84 508.09 C 112.17 510.35 117.27 509.78 121.98 510.03 C 233.65 509.99 345.33 509.96 457.00 510.04 C 463.99 509.88 471.78 511.03 478.12 507.23 C 478.48 507.05 479.19 506.69 479.54 506.50 L 480.41 506.29 C 478.83 508.53 476.58 510.16 474.59 512.00 L 110.38 512.00 C 105.32 509.64 100.86 505.86 99.71 500.13 Z" />
<path fill="#a0aba5" d=" M 104.14 502.68 C 105.74 506.44 109.99 508.07 113.98 507.02 C 234.48 507.02 354.97 506.91 475.47 507.08 C 470.50 508.78 465.22 509.06 460.02 509.03 C 351.68 508.98 243.34 508.99 135.00 509.02 C 125.93 509.19 116.86 509.01 107.84 508.09 C 105.84 506.92 101.88 505.47 104.14 502.68 Z" />
<path fill="#67786f" d=" M 108.78 505.31 C 202.51 504.59 296.26 505.21 390.00 505.00 C 418.15 505.79 447.61 503.42 474.95 506.16 C 352.90 505.33 230.76 507.02 108.78 505.31 Z" />
<path fill="#b2bbb6" d=" M 475.47 507.08 C 475.89 507.10 476.71 507.14 477.13 507.16 L 478.12 507.23 C 471.78 511.03 463.99 509.88 457.00 510.04 C 345.33 509.96 233.65 509.99 121.98 510.03 C 117.27 509.78 112.17 510.35 107.84 508.09 C 116.86 509.01 125.93 509.19 135.00 509.02 C 243.34 508.99 351.68 508.98 460.02 509.03 C 465.22 509.06 470.50 508.78 475.47 507.08 Z" />
</svg>
